<svg xmlns="http://www.w3.org/2000/svg" viewBox="0 0 64 64" id="chatbot"><path d="M22.76 45.56c.26 0 .52-.1.71-.3a.996.996 0 0 0 0-1.41c-.78-.77-1.82-1.2-2.92-1.2s-2.14.43-2.92 1.2a.987.987 0 0 0 0 1.41c.39.39 1.02.4 1.41 0 .81-.8 2.21-.8 3.02 0 .19.19.45.29.7.29zm5.85-.29c.81-.8 2.21-.8 3.02 0a.992.992 0 0 0 1.41-.01.996.996 0 0 0 0-1.41c-.78-.77-1.82-1.2-2.92-1.2s-2.14.43-2.92 1.2a.987.987 0 0 0 0 1.41c.39.39 1.02.4 1.41 0z"></path><path d="M51.96 7.09H40.33c-4.43 0-8.04 3.61-8.04 8.04 0 4.09 3.08 7.43 7.04 7.93v8.95a12.405 12.405 0 0 0-6-3.95v-1.65c0-1.65-1.34-2.99-2.99-2.99H20.32c-1.65 0-2.99 1.34-2.99 2.99v1.69c-2.38.72-4.45 2.11-6 3.96V21.03c0-1.43-1.17-2.6-2.6-2.6s-2.6 1.17-2.6 2.6v15.35c-1.24.42-2.15 1.57-2.15 2.95v6.11a3.15 3.15 0 0 0 3.15 3.15H9.3c1.87 4.85 6.55 8.32 12.06 8.32h7.92c3.88 0 7.32-1.75 9.7-4.46h2.69c1.57 0 2.84-1.27 2.84-2.84v-1.22c1.24-.42 2.15-1.57 2.15-2.95v-6.11c0-1.38-.91-2.52-2.15-2.95V23.16H46v.88a1.83 1.83 0 0 0 2.88 1.5l3.38-2.38c4.28-.17 7.71-3.71 7.71-8.02S56.36 7.1 51.93 7.1ZM19.34 26.41c0-.56.43-.99.99-.99h10.02c.55 0 .99.44.99.99v1.24c-.49-.06-.98-.15-1.48-.15h-8.85c-.57 0-1.11.09-1.66.17v-1.26ZM21 29.5h8.85c5.73 0 10.4 4.67 10.4 10.4v4.06c0 .23-.05.45-.07.69-.33-.13-.6-.4-.6-.77 0-6.17-5.02-11.19-11.19-11.19h-6.11c-6.17 0-11.19 5.02-11.19 11.19 0 .37-.27.63-.6.77-.01-.23-.07-.45-.07-.69V39.9c0-5.73 4.74-10.4 10.57-10.4ZM8.75 20.43c.33 0 .6.26.6.6v14.28c-.11.28-.18.58-.27.87h-.92V21.03c0-.34.26-.6.6-.6Zm-1.6 26.16c-.63 0-1.15-.52-1.15-1.15v-6.11c0-.63.51-1.15 1.15-1.15H8.6c-.08.57-.18 1.13-.18 1.72v4.06c0 .27.19 2.25.27 2.63H7.14Zm22.15 8.32h-7.92c-5.11 0-9.37-3.53-10.58-8.26 1.3-.28 2.29-1.39 2.29-2.77 0-5.07 4.12-9.19 9.19-9.19h6.11c5.07 0 9.19 4.12 9.19 9.19 0 1.38.99 2.48 2.29 2.77-.36 1.4-.97 2.68-1.81 3.8h-8.52a2.506 2.506 0 0 0-2.29-1.51h-3.83c-1.38 0-2.51 1.13-2.51 2.51s1.12 2.51 2.51 2.51h3.83c1.03 0 1.91-.62 2.29-1.51h6.58c-1.88 1.51-4.23 2.46-6.83 2.46Zm-1.54-3.46a.5.5 0 0 1-.51.51h-3.83c-.29 0-.51-.22-.51-.51s.23-.51.51-.51h3.83c.28 0 .51.23.51.51Zm13.93-1h-1.25c.35-.6.67-1.21.92-1.86h1.17v1.02c0 .46-.38.84-.84.84Zm2.99-5.01c0 .63-.51 1.15-1.15 1.15h-1.55c.08-.4.27-2.34.27-2.63V39.9c0-.59-.09-1.15-.17-1.72h1.45c.63 0 1.15.52 1.15 1.15v6.11Zm-2.15-9.26h-.91c-.1-.3-.16-.62-.28-.91V23.16h1.19v13.02Zm9.44-15.02c-.21 0-.41.06-.58.18l-3.37 2.37v-1.56c0-.55-.45-1-1-1h-6.69c-3.33 0-6.04-2.71-6.04-6.03S37 9.08 40.33 9.08h11.63c3.33 0 6.04 2.71 6.04 6.04s-2.71 6.03-6.04 6.03Z"></path><path d="M39.17 12.31c-1.55 0-2.82 1.27-2.82 2.82s1.26 2.81 2.82 2.81 2.82-1.26 2.82-2.81-1.26-2.82-2.82-2.82zm0 3.63c-.44 0-.82-.37-.82-.81s.37-.82.82-.82.82.38.82.82-.37.81-.82.81zm6.98-3.63c-1.55 0-2.82 1.27-2.82 2.82s1.26 2.81 2.82 2.81 2.82-1.26 2.82-2.81-1.26-2.82-2.82-2.82zm0 3.63c-.44 0-.82-.37-.82-.81s.37-.82.82-.82.82.38.82.82-.37.81-.82.81zm6.97-3.63c-1.55 0-2.82 1.27-2.82 2.82s1.26 2.81 2.82 2.81 2.82-1.26 2.82-2.81-1.26-2.82-2.82-2.82zm0 3.63c-.44 0-.82-.37-.82-.81s.37-.82.82-.82.82.38.82.82-.37.81-.82.81z"></path></svg>